# Blender 4.1.1
# www.blender.org
mtllib dom_szescian.mtl
o Cube
v 1.000000 1.000000 -1.000000
v 1.000000 -1.000000 -1.000000
v 1.000000 1.000000 1.000000
v 1.000000 -1.000000 1.000000
v -1.000000 1.000000 -1.000000
v -1.000000 -1.000000 -1.000000
v -1.000000 1.000000 1.000000
v -1.000000 -1.000000 1.000000
v 1.000000 1.404938 -1.000000
v 1.000000 1.404938 1.000000
v -1.000000 1.404938 -1.000000
v -1.000000 1.404938 1.000000
vn -1.0000 -0.0000 -0.0000
vn -0.0000 -0.0000 1.0000
vn -0.0000 -1.0000 -0.0000
vn 1.0000 -0.0000 -0.0000
vn -0.0000 -0.0000 -1.0000
vn -0.0000 1.0000 -0.0000
vt 0.625000 0.250000
vt 0.625000 0.000000
vt 0.375000 0.750000
vt 0.625000 0.750000
vt 0.625000 1.000000
vt 0.375000 1.000000
vt 0.375000 0.000000
vt 0.375000 0.250000
vt 0.125000 0.500000
vt 0.375000 0.500000
vt 0.125000 0.750000
vt 0.625000 0.500000
vt 0.875000 0.500000
vt 0.875000 0.750000
s 0
usemtl Material
f 5/1/1 7/2/1 12/2/1 11/1/1
f 4/3/2 3/4/2 7/5/2 8/6/2
f 8/7/1 7/2/1 5/1/1 6/8/1
f 6/9/3 2/10/3 4/3/3 8/11/3
f 2/10/4 1/12/4 3/4/4 4/3/4
f 6/8/5 5/1/5 1/12/5 2/10/5
f 9/12/6 11/13/6 12/14/6 10/4/6
f 3/4/4 1/12/4 9/12/4 10/4/4
f 1/12/5 5/1/5 11/1/5 9/12/5
f 7/5/2 3/4/2 10/4/2 12/5/2
