# Blender 4.1.1
# www.blender.org
mtllib komin.mtl
o Cube.002
v 0.268892 6.314271 -1.710416
v 0.268892 0.000000 -1.710416
v 0.268849 6.314271 -2.789670
v 0.268849 0.000000 -2.789670
v 4.231451 6.314271 -1.710574
v 4.231408 0.000000 -2.789828
v 4.231451 0.000000 -1.710574
v 4.231408 6.314271 -2.789828
v 3.151529 6.314271 -2.777379
v 3.151529 0.000000 -2.777379
v 4.230783 6.314271 -2.777379
v 4.230783 0.000000 -2.777379
v 3.151528 6.314271 1.185180
v 4.230783 0.000000 1.185180
v 3.151528 0.000000 1.185180
v 4.230783 6.314271 1.185180
v 3.152079 6.314271 0.105379
v 3.152079 0.000000 0.105379
v 3.152079 6.314271 1.184633
v 3.152079 0.000000 1.184633
v -0.810480 6.314271 0.105379
v -0.810480 0.000000 1.184633
v -0.810480 0.000000 0.105379
v -0.810480 6.314271 1.184633
v 0.268549 6.314271 1.173378
v 0.268549 0.000000 1.173378
v -0.810705 6.314271 1.173420
v -0.810705 0.000000 1.173420
v 0.268392 6.314271 -2.789181
v -0.810863 0.000000 -2.789139
v 0.268392 0.000000 -2.789181
v -0.810863 6.314271 -2.789139
vn -0.0000 -0.0000 -1.0000
vn -0.0000 -0.0000 1.0000
vn 1.0000 -0.0000 -0.0000
vn -1.0000 -0.0000 -0.0000
vn -0.0000 -1.0000 -0.0000
vn -0.0000 1.0000 -0.0000
vt 0.375000 0.000000
vt 0.625000 0.000000
vt 0.625000 0.250000
vt 0.375000 0.250000
vt 0.625000 0.500000
vt 0.375000 0.500000
vt 0.625000 0.750000
vt 0.375000 0.750000
vt 0.625000 1.000000
vt 0.375000 1.000000
vt 0.125000 0.500000
vt 0.125000 0.750000
vt 0.875000 0.500000
vt 0.875000 0.750000
s 0
usemtl Material.003
f 4/1/1 3/2/1 8/3/1 6/4/1
f 7/4/2 5/3/2 1/5/2 2/6/2
f 6/6/3 8/5/3 5/7/3 7/8/3
f 2/8/4 1/7/4 3/9/4 4/10/4
f 7/11/5 2/6/5 4/8/5 6/12/5
f 1/5/6 5/13/6 8/14/6 3/7/6
usemtl Material
f 12/1/3 11/2/3 16/3/3 14/4/3
f 15/4/4 13/3/4 9/5/4 10/6/4
f 14/6/2 16/5/2 13/7/2 15/8/2
f 10/8/1 9/7/1 11/9/1 12/10/1
f 15/11/5 10/6/5 12/8/5 14/12/5
f 9/5/6 13/13/6 16/14/6 11/7/6
usemtl Material.002
f 20/1/2 19/2/2 24/3/2 22/4/2
f 23/4/1 21/3/1 17/5/1 18/6/1
f 22/6/4 24/5/4 21/7/4 23/8/4
f 18/8/3 17/7/3 19/9/3 20/10/3
f 23/11/5 18/6/5 20/8/5 22/12/5
f 17/5/6 21/13/6 24/14/6 19/7/6
usemtl Material.004
f 28/1/4 27/2/4 32/3/4 30/4/4
f 31/4/3 29/3/3 25/5/3 26/6/3
f 30/6/1 32/5/1 29/7/1 31/8/1
f 26/8/2 25/7/2 27/9/2 28/10/2
f 31/11/5 26/6/5 28/8/5 30/12/5
f 25/5/6 29/13/6 32/14/6 27/7/6
